# xmcd CD database file
#
# Track frame offsets:
#	150
#	17582
#	40277
#	58160
#	75095
#	95130
#	117517
#	138222
#	157035
#	179800
#	199825
#	221262
#	245570
#	274137
#
# Disc length: 3934 seconds
#
# Revision: 8
# Processed by: cddbd v1.5.1PL0 Copyright (c) Steve Scherf et al.
# Submitted via: CDex 1.51
#
DISCID=c90f5c0e
DTITLE=THE CHECKERS - THE BEST オリジナルカラオケ
DYEAR=1991
DGENRE=JPop
TTITLE0=NANA
TTITLE1=I Love you, SAYONARA
TTITLE2=WANDERER
TTITLE3=Blue Rain
TTITLE4=ONE NIGHT GIGOLO
TTITLE5=Jim and Janeの伝説
TTITLE6=素直にI'm Sorry
TTITLE7=Room
TTITLE8=Cherie
TTITLE9=Friends and Dream
TTITLE10=運命 SADAME
TTITLE11=夜明けのブレス
TTITLE12=さよならをもう一度
TTITLE13=Love '91
EXTD=YEAR: 1991
EXTT0=
EXTT1=
EXTT2=
EXTT3=
EXTT4=
EXTT5=
EXTT6=
EXTT7=
EXTT8=
EXTT9=
EXTT10=
EXTT11=
EXTT12=
EXTT13=
PLAYORDER=
